<svg xmlns="http://www.w3.org/2000/svg" width="24.392" height="30.712" viewBox="0 0 24.392 30.712">
  <defs>
    <style>
      .cls-1 {
        fill: #dbcb9e;
      }
    </style>
  </defs>
  <g id="atendiento" transform="translate(0 0)">
    <g id="Grupo_44" data-name="Grupo 44" transform="translate(0)">
      <g id="Grupo_43" data-name="Grupo 43">
        <path id="Caminho_35" data-name="Caminho 35" class="cls-1" d="M75.054,18.33l-.038-.012-3.362-.959-2.386-2.277v-.612a6.289,6.289,0,0,0,1.862-4.454V6.3a6.292,6.292,0,1,0-12.585,0v3.719a6.289,6.289,0,0,0,1.862,4.454v.612l-2.371,2.273-3.3.963-.032.01a2.97,2.97,0,0,0-1.939,3.5l1.591,8.157a.9.9,0,0,0,.882.728c.025,0,.05,0,.075,0s.045,0,.069,0H74.434a.9.9,0,0,0,.881-.719l1.677-8.161A2.97,2.97,0,0,0,75.054,18.33Zm-5.078-.089L67.4,22.1,66,20.7l2.545-3.836ZM64.843,1.8a4.5,4.5,0,0,1,3.6,1.8,4.518,4.518,0,0,1-3.6,1.8H60.435A4.507,4.507,0,0,1,64.843,1.8Zm-4.511,8.218V7.2h4.511a6.32,6.32,0,0,0,4.408-1.8,4.5,4.5,0,0,1,.091.9v3.719a4.5,4.5,0,0,1-9.01,0Zm.809,6.845L63.687,20.7l-1.4,1.4-2.573-3.86Zm2.8,12.049H55.98c-.007-.034-1.454-7.463-1.463-7.5a1.162,1.162,0,0,1,.743-1.373l2.92-.853L61.4,24.013a.9.9,0,0,0,1.385.137l1.163-1.163v5.926ZM62.685,15.935a6.3,6.3,0,0,0,4.316,0l-2.158,3.252Zm12.548,5.518L73.7,28.912H65.731V22.987l1.175,1.163a.9.9,0,0,0,1.385-.137l3.216-4.824,2.994.854A1.163,1.163,0,0,1,75.233,21.452Z" transform="translate(-52.683)"/>
      </g>
    </g>
    <g id="Grupo_46" data-name="Grupo 46" transform="translate(16.658 25.313)">
      <g id="Grupo_45" data-name="Grupo 45">
        <path id="Caminho_36" data-name="Caminho 36" class="cls-1" d="M333.1,422h-1.8a.9.9,0,1,0,0,1.8h1.8a.9.9,0,1,0,0-1.8Z" transform="translate(-330.399 -421.998)"/>
      </g>
    </g>
  </g>
</svg>
