<svg xmlns="http://www.w3.org/2000/svg" width="26.993" height="30.712" viewBox="0 0 26.993 30.712">
  <defs>
    <style>
      .cls-1 {
        fill: #dbcb9e;
      }
    </style>
  </defs>
  <g id="mail" transform="translate(0)">
    <g id="Grupo_40" data-name="Grupo 40" transform="translate(7.198 3.599)">
      <g id="Grupo_39" data-name="Grupo 39">
        <path id="Caminho_33" data-name="Caminho 33" class="cls-1" d="M157.3,60a6.3,6.3,0,0,0-3.39,11.6,6.428,6.428,0,0,0,6.264.342.9.9,0,0,0-.752-1.635,4.662,4.662,0,0,1-4.541-.222A4.5,4.5,0,1,1,161.8,66.3a.9.9,0,0,1-1.8.014s0-.009,0-.014a2.7,2.7,0,1,0-.9,2.01,2.7,2.7,0,0,0,4.5-2.01A6.305,6.305,0,0,0,157.3,60Zm.887,6.443a.9.9,0,1,1,.006-.247A.9.9,0,0,0,158.185,66.443Z" transform="translate(-151 -60)"/>
      </g>
    </g>
    <g id="Grupo_42" data-name="Grupo 42" transform="translate(0)">
      <g id="Grupo_41" data-name="Grupo 41">
        <path id="Caminho_34" data-name="Caminho 34" class="cls-1" d="M57.993,11.815a.906.906,0,0,0-.264-.635L54.394,7.845V.9a.9.9,0,0,0-.9-.9h-18a.9.9,0,0,0-.9.9V7.845l-3.335,3.335-.009.01a.9.9,0,0,0-.255.625v16.2a2.7,2.7,0,0,0,2.7,2.7H55.294a2.7,2.7,0,0,0,2.7-2.7v-16.2Zm-3.6-1.425,1.427,1.427-1.427,1.427Zm-18-2.172h0V1.8h16.2V8.218h0v6.825l-4.871,4.871H41.27L36.4,15.043ZM34.6,10.39v2.854l-1.427-1.427ZM32.8,27.64V13.989l6.825,6.825Zm1.272,1.272,7.2-7.2h6.453l7.2,7.2ZM56.193,27.64l-6.825-6.825,6.825-6.825Z" transform="translate(-31)"/>
      </g>
    </g>
  </g>
</svg>
