<svg xmlns="http://www.w3.org/2000/svg" width="19.68" height="18.805" viewBox="0 0 19.68 18.805">
  <g id="linkedin" transform="translate(0 0)">
    <path id="LinkedIn-2" data-name="LinkedIn" d="M19.68,21.088v7.276H15.462V21.575c0-1.705-.61-2.869-2.137-2.869a2.308,2.308,0,0,0-2.164,1.543,2.886,2.886,0,0,0-.14,1.028v7.086H6.8s.057-11.5,0-12.689h4.219v1.8c-.009.013-.02.028-.028.041h.028v-.041a4.189,4.189,0,0,1,3.8-2.1C17.6,15.377,19.68,17.19,19.68,21.088ZM2.388,9.558a2.2,2.2,0,1,0-.056,4.385H2.36a2.2,2.2,0,1,0,.028-4.385ZM.251,28.364H4.469V15.675H.251Z" transform="translate(0 -9.558)" fill="#fff"/>
  </g>
</svg>
