<svg xmlns="http://www.w3.org/2000/svg" width="43.093" height="43.094" viewBox="0 0 43.093 43.094">
  <g id="seta" transform="translate(43.093 21.546) rotate(135)" fill="none">
    <path d="M0,25.9V4.571A4.571,4.571,0,0,1,4.571,0H25.9a4.571,4.571,0,1,1,0,9.141H9.141V25.9A4.571,4.571,0,1,1,0,25.9Z" stroke="none"/>
    <path d="M 4.571100234985352 29.47130012512207 C 6.53971004486084 29.47130012512207 8.141300201416016 27.86931037902832 8.141300201416016 25.90019989013672 L 8.141300201416016 9.141300201416016 L 8.141300201416016 8.141300201416016 L 9.141300201416016 8.141300201416016 L 25.90019989013672 8.141300201416016 C 27.86931037902832 8.141300201416016 29.47130012512207 6.53971004486084 29.47130012512207 4.571100234985352 C 29.47130012512207 2.601989984512329 27.86931037902832 1.00000011920929 25.90019989013672 1.00000011920929 L 4.571100234985352 1.00000011920929 C 2.601989984512329 1.00000011920929 1.00000011920929 2.601989984512329 1.00000011920929 4.571100234985352 L 1.00000011920929 25.90019989013672 C 1.00000011920929 27.86931037902832 2.601989984512329 29.47130012512207 4.571100234985352 29.47130012512207 M 4.571100234985352 30.47130012512207 C 2.046600103378296 30.47130012512207 6.256103546320446e-08 28.4246997833252 6.256103546320446e-08 25.90019989013672 L 6.256103546320446e-08 4.571100234985352 C 6.256103546320446e-08 2.046600103378296 2.046600103378296 6.256103546320446e-08 4.571100234985352 6.256103546320446e-08 L 25.90019989013672 6.256103546320446e-08 C 28.4246997833252 6.256103546320446e-08 30.47130012512207 2.046600103378296 30.47130012512207 4.571100234985352 C 30.47130012512207 7.094699859619141 28.4246997833252 9.141300201416016 25.90019989013672 9.141300201416016 L 9.141300201416016 9.141300201416016 L 9.141300201416016 25.90019989013672 C 9.141300201416016 28.4246997833252 7.094699859619141 30.47130012512207 4.571100234985352 30.47130012512207 Z" stroke="none" fill="#dbcb9e"/>
  </g>
</svg>
