<svg xmlns="http://www.w3.org/2000/svg" width="28.265" height="28.266" viewBox="0 0 28.265 28.266">
  <defs>
    <style>
      .cls-1 {
        fill: none;
      }

      .cls-2, .cls-3 {
        stroke: none;
      }

      .cls-3 {
        fill: #fff;
      }
    </style>
  </defs>
  <g id="União_1" data-name="União 1" class="cls-1" transform="translate(28.265 14.133) rotate(135)">
    <path class="cls-2" d="M0,16.988V3A3,3,0,0,1,3,0h13.99a3,3,0,1,1,0,6H6V16.988a3,3,0,1,1-6,0Z"/>
    <path class="cls-3" d="M 2.997900724411011 18.98630142211914 C 4.099550724029541 18.98630142211914 4.995800495147705 18.09005165100098 4.995800495147705 16.98840141296387 L 4.995800495147705 5.995800495147705 L 4.995800495147705 4.995800495147705 L 5.995800495147705 4.995800495147705 L 16.98840141296387 4.995800495147705 C 18.09005165100098 4.995800495147705 18.98630142211914 4.099550724029541 18.98630142211914 2.997900724411011 C 18.98630142211914 1.89625072479248 18.09005165100098 1.000000715255737 16.98840141296387 1.000000715255737 L 2.997900724411011 1.000000715255737 C 1.89625072479248 1.000000715255737 1.000000715255737 1.89625072479248 1.000000715255737 2.997900724411011 L 1.000000715255737 16.98840141296387 C 1.000000715255737 18.09005165100098 1.89625072479248 18.98630142211914 2.997900724411011 18.98630142211914 M 2.997900724411011 19.98630142211914 C 1.341900706291199 19.98630142211914 7.110595561243827e-07 18.64440155029297 7.110595561243827e-07 16.98840141296387 L 7.110595561243827e-07 2.997900724411011 C 7.110595561243827e-07 1.341900706291199 1.341900706291199 7.110595561243827e-07 2.997900724411011 7.110595561243827e-07 L 16.98840141296387 7.110595561243827e-07 C 18.64440155029297 7.110595561243827e-07 19.98630142211914 1.341900706291199 19.98630142211914 2.997900724411011 C 19.98630142211914 4.653900623321533 18.64440155029297 5.995800495147705 16.98840141296387 5.995800495147705 L 5.995800495147705 5.995800495147705 L 5.995800495147705 16.98840141296387 C 5.995800495147705 18.64440155029297 4.653900623321533 19.98630142211914 2.997900724411011 19.98630142211914 Z"/>
  </g>
</svg>
