<svg xmlns="http://www.w3.org/2000/svg" xmlns:xlink="http://www.w3.org/1999/xlink" width="64.894" height="38.885" viewBox="0 0 64.894 38.885">
  <defs>
    <style>
      .cls-1 {
        fill: #22b573;
      }

      .cls-2 {
        fill-rule: evenodd;
        fill: url(#linear-gradient);
      }
    </style>
    <linearGradient id="linear-gradient" y1="0.5" x2="1" y2="0.5" gradientUnits="objectBoundingBox">
      <stop offset="0" stop-color="#ff9100"/>
      <stop offset="1" stop-color="#ff7100"/>
    </linearGradient>
  </defs>
  <g id="siterapido" transform="translate(-1.394 -1.681)">
    <g id="Grupo_47" data-name="Grupo 47" transform="translate(1.507 1.681)">
      <path id="Caminho_39" data-name="Caminho 39" class="cls-1" d="M8.275,22.956q.14-.713-1.1-1.07l-.767-.194A5.9,5.9,0,0,1,3.652,20.3a2.757,2.757,0,0,1-.821-2.128,3.389,3.389,0,0,1,1.5-2.738A5.693,5.693,0,0,1,7.843,14.4a5.274,5.274,0,0,1,3.343,1.048,3.417,3.417,0,0,1,1.3,2.765L8.945,18.2q.043-1.383-1.22-1.383a1.743,1.743,0,0,0-1,.319,1.238,1.238,0,0,0-.551.848q-.184.875,1.545,1.2a8.981,8.981,0,0,1,2.322.826,3.467,3.467,0,0,1,1.253,1.161,2.889,2.889,0,0,1,.4,1.664A3.123,3.123,0,0,1,11,24.727,4.472,4.472,0,0,1,9.09,26.055a6.822,6.822,0,0,1-2.706.464,5.486,5.486,0,0,1-2.349-.529,4.187,4.187,0,0,1-1.7-1.41,3.663,3.663,0,0,1-.631-2.047l3.305.022A1.365,1.365,0,0,0,6.568,24.09a2.038,2.038,0,0,0,1.123-.3A1.284,1.284,0,0,0,8.275,22.956Z" transform="translate(-1.708 -9.821)"/>
      <path id="Caminho_40" data-name="Caminho 40" class="cls-1" d="M34.1,18.163H30.541L32.572,6.477h3.564ZM32.885,3.528a1.645,1.645,0,0,1,.556-1.318,2,2,0,0,1,1.4-.53,2.063,2.063,0,0,1,1.388.476A1.62,1.62,0,0,1,36.805,3.4a1.652,1.652,0,0,1-.551,1.323,2,2,0,0,1-1.4.524,2.088,2.088,0,0,1-1.377-.47A1.6,1.6,0,0,1,32.885,3.528Z" transform="translate(-20.16 -1.681)"/>
      <path id="Caminho_41" data-name="Caminho 41" class="cls-1" d="M52.2,6.931,51.7,9.837h1.869l-.443,2.527H51.254l-.907,5.368a1.432,1.432,0,0,0,.07.832q.146.28.729.3a8.576,8.576,0,0,0,.929-.054l-.259,2.636a5.745,5.745,0,0,1-1.912.27,3.15,3.15,0,0,1-2.474-.972,3.317,3.317,0,0,1-.669-2.581l.95-5.8H46.264L46.7,9.837h1.448l.508-2.906Z" transform="translate(-30.223 -5.041)"/>
      <path id="Caminho_42" data-name="Caminho 42" class="cls-1" d="M69.518,26.516a5.429,5.429,0,0,1-2.792-.74,4.659,4.659,0,0,1-1.852-2.03,5.454,5.454,0,0,1-.5-2.868l.032-.3a7.163,7.163,0,0,1,2-4.563,5.543,5.543,0,0,1,4.2-1.615,4.52,4.52,0,0,1,2.571.763A4.261,4.261,0,0,1,74.746,17.2a6.261,6.261,0,0,1,.324,2.926l-.205,1.482H67.909a2.28,2.28,0,0,0,.518,1.491,1.9,1.9,0,0,0,1.447.6,3.677,3.677,0,0,0,2.776-1.188l1.491,1.971A4.4,4.4,0,0,1,72.3,25.962a6.477,6.477,0,0,1-2.587.554Zm.864-9.31a1.827,1.827,0,0,0-1.312.473,3.962,3.962,0,0,0-.967,1.655h3.553l.065-.311a2.372,2.372,0,0,0,.022-.709A1.251,1.251,0,0,0,70.382,17.206Z" transform="translate(-41.8 -9.818)"/>
    </g>
    <path id="Icon" class="cls-2" d="M131.968,43.848l5.151,9.809a.85.85,0,0,1-.963,1.224L133.488,54a.522.522,0,0,0-.63.3,21.608,21.608,0,0,1-19.145,12.989,1.6,1.6,0,0,1-.612-3.033l.065-.035a22.621,22.621,0,0,0,10.685-12.847.532.532,0,0,0-.315-.682l-2.525-.838a.85.85,0,0,1-.04-1.557l9.994-4.783a.751.751,0,0,1,1,.333" transform="translate(-70.928 -26.723)"/>
    <g id="Grupo_48" data-name="Grupo 48" transform="translate(1.394 18.71)">
      <path id="Caminho_43" data-name="Caminho 43" class="cls-1" d="M7.272,60.974a3.91,3.91,0,0,0-.722-.063,3.007,3.007,0,0,0-1.8.565,3.811,3.811,0,0,0-1.25,1.64L2.469,69.829H1.394l1.5-9.776H3.953l-.221,1.554a3.449,3.449,0,0,1,3.022-1.735,1.649,1.649,0,0,1,.7.117Z" transform="translate(-1.394 -55.951)"/>
      <path id="Caminho_44" data-name="Caminho 44" class="cls-1" d="M22.545,62.858a4.919,4.919,0,0,1,0-1.365,4.684,4.684,0,0,1-1.626,1.143,4.874,4.874,0,0,1-1.928.4,2.85,2.85,0,0,1-2.161-.786,2.231,2.231,0,0,1-.566-1.988A3.156,3.156,0,0,1,17.8,58.006a6.355,6.355,0,0,1,3.439-.831H23.2l.171-1.111a1.888,1.888,0,0,0-.392-1.649,2.335,2.335,0,0,0-1.792-.6,3.341,3.341,0,0,0-1.959.578,2.076,2.076,0,0,0-.955,1.392l-1.083-.009a3.04,3.04,0,0,1,1.395-2.019,4.743,4.743,0,0,1,2.8-.854,3.333,3.333,0,0,1,2.454.818A2.562,2.562,0,0,1,24.457,56l-.711,4.626a5.558,5.558,0,0,0-.028,2.123l-.017.109Zm-3.278-.777a4.065,4.065,0,0,0,2.019-.524,3.856,3.856,0,0,0,1.457-1.4l.331-2.15H21.139a5.363,5.363,0,0,0-2.621.592,2.153,2.153,0,0,0-1.155,1.577,1.521,1.521,0,0,0,.4,1.365A2,2,0,0,0,19.267,62.081Zm4.145-13.1h1.31l-2.476,2.53-.948,0Z" transform="translate(-10.888 -48.98)"/>
      <path id="Caminho_45" data-name="Caminho 45" class="cls-1" d="M49.658,65.04a6.79,6.79,0,0,1-1.569,3.627,3.805,3.805,0,0,1-2.917,1.342,3.068,3.068,0,0,1-2.856-1.41l-.766,4.987H40.475l2.08-13.535h1L43.4,61.435a4.106,4.106,0,0,1,3.3-1.563A2.745,2.745,0,0,1,49.25,61.2a5.516,5.516,0,0,1,.432,3.686ZM48.6,64.85a4.626,4.626,0,0,0-.314-2.955,2.083,2.083,0,0,0-1.975-1.084,3.354,3.354,0,0,0-1.781.479,3.765,3.765,0,0,0-1.307,1.391l-.72,4.69a2.31,2.31,0,0,0,.914,1.283,2.862,2.862,0,0,0,1.64.443,2.9,2.9,0,0,0,2.295-1.089A6.246,6.246,0,0,0,48.6,64.85Z" transform="translate(-26.405 -55.951)"/>
      <path id="Caminho_46" data-name="Caminho 46" class="cls-1" d="M69.967,63.838H68.883l1.5-9.776h1.084Zm.662-12.6a.857.857,0,0,1,.278-.516.821.821,0,0,1,.575-.211.624.624,0,0,1,.514.211.633.633,0,0,1,.124.516.831.831,0,0,1-.282.512.844.844,0,0,1-.578.206.617.617,0,0,1-.511-.206A.627.627,0,0,1,70.629,51.238Z" transform="translate(-44.585 -49.96)"/>
      <path id="Caminho_47" data-name="Caminho 47" class="cls-1" d="M78.69,57.88a6.8,6.8,0,0,1,1.574-3.628A3.86,3.86,0,0,1,83.232,52.9a2.856,2.856,0,0,1,2.778,1.563l.842-5.484h1.075L85.795,62.858H84.783l.155-1.3a4.116,4.116,0,0,1-3.282,1.482,2.743,2.743,0,0,1-2.515-1.36,5.409,5.409,0,0,1-.47-3.673Zm1.064.19a4.7,4.7,0,0,0,.3,2.95A2.039,2.039,0,0,0,82,62.1a3.485,3.485,0,0,0,3.108-1.762l.705-4.59a2.4,2.4,0,0,0-2.526-1.906A2.9,2.9,0,0,0,81,54.912,6.216,6.216,0,0,0,79.755,58.07Z" transform="translate(-50.781 -48.98)"/>
      <path id="Caminho_48" data-name="Caminho 48" class="cls-1" d="M104.773,64.8a6.5,6.5,0,0,1,.937-2.539,5.217,5.217,0,0,1,1.815-1.757,4.664,4.664,0,0,1,2.36-.628,3.424,3.424,0,0,1,2.952,1.368,4.732,4.732,0,0,1,.653,3.628l-.035.226a6.557,6.557,0,0,1-.938,2.552,5.117,5.117,0,0,1-1.81,1.748,4.723,4.723,0,0,1-2.362.615A3.426,3.426,0,0,1,105.4,68.64a4.718,4.718,0,0,1-.658-3.628Zm1.038.3a4.005,4.005,0,0,0,.466,2.878,2.462,2.462,0,0,0,2.208,1.125,3.416,3.416,0,0,0,2.545-1.125A5.323,5.323,0,0,0,112.394,65l.032-.208a4.707,4.707,0,0,0-.1-2.051,2.7,2.7,0,0,0-.944-1.441,2.632,2.632,0,0,0-1.638-.511,3.406,3.406,0,0,0-2.532,1.134,5.332,5.332,0,0,0-1.368,2.968Z" transform="translate(-67.475 -55.951)"/>
    </g>
  </g>
</svg>
