<svg xmlns="http://www.w3.org/2000/svg" width="30.712" height="30.712" viewBox="0 0 30.712 30.712">
  <defs>
    <style>
      .cls-1 {
        fill: #dbcb9e;
      }
    </style>
  </defs>
  <g id="wp" transform="translate(0 0)">
    <path id="Caminho_37" data-name="Caminho 37" class="cls-1" d="M26.2,4.51A15.343,15.343,0,0,0,1.78,22.524L.026,29.6a.9.9,0,0,0,1.09,1.09l7.072-1.754A15.342,15.342,0,0,0,26.2,4.51Zm-10.846,24.4a13.5,13.5,0,0,1-6.6-1.723A.9.9,0,0,0,8.1,27.1L2.132,28.579l1.479-5.963a.9.9,0,0,0-.089-.657,13.553,13.553,0,1,1,11.834,6.953Zm0,0" transform="translate(0)"/>
    <path id="Caminho_38" data-name="Caminho 38" class="cls-1" d="M124.765,116.921a7.735,7.735,0,0,0-2.011-1.565,2.507,2.507,0,0,0-3.045.441c-.378.378-.9,1.123-1.2,1.49a10.142,10.142,0,0,1-4.964-4.964c.364-.3,1.112-.82,1.49-1.2a2.507,2.507,0,0,0,.441-3.045,7.735,7.735,0,0,0-1.564-2.011c-1.214-1.24-3.087-1.331-4.7.286-1.208,1.208-2.284,3.447-.552,7.256a19.417,19.417,0,0,0,3.491,5.068l.006.006a19.406,19.406,0,0,0,5.068,3.491c2.545,1.157,5.272,1.432,7.256-.552,1.641-1.641,1.5-3.512.286-4.7Zm-1.558,3.431c-1.172,1.172-2.934,1.235-5.239.187a15.2,15.2,0,0,1-7.672-7.672c-1.048-2.3-.985-4.067.187-5.239.684-.684,1.471-.987,2.146-.3l.013.013c1.6,1.6,1.484,2.151,1.124,2.511-.32.32-1.265.962-1.571,1.267-.717.717-.584,1.828.4,3.3a15.471,15.471,0,0,0,1.722,2.1l0,0a15.484,15.484,0,0,0,2.1,1.722c1.473.98,2.584,1.114,3.3.4.306-.306.948-1.251,1.267-1.571.244-.244.484-.337.991-.092a6.537,6.537,0,0,1,1.52,1.216l.013.013c.694.68.385,1.461-.3,2.146Zm0,0" transform="translate(-101.289 -98.833)"/>
  </g>
</svg>
