<svg xmlns="http://www.w3.org/2000/svg" width="10.64" height="19.68" viewBox="0 0 10.64 19.68">
  <g id="facebook" transform="translate(0 0)">
    <path id="Caminho_1" data-name="Caminho 1" d="M32.316,0,29.764,0a4.482,4.482,0,0,0-4.72,4.843V7.076H22.478a.4.4,0,0,0-.4.4v3.235a.4.4,0,0,0,.4.4h2.566v8.164a.4.4,0,0,0,.4.4h3.348a.4.4,0,0,0,.4-.4V11.115h3a.4.4,0,0,0,.4-.4V7.478a.4.4,0,0,0-.4-.4h-3V5.183c0-.91.217-1.372,1.4-1.372h1.719a.4.4,0,0,0,.4-.4v-3A.4.4,0,0,0,32.316,0Z" transform="translate(-22.077)" fill="#fff"/>
  </g>
</svg>
