<svg id="instagram" xmlns="http://www.w3.org/2000/svg" width="19.68" height="19.68" viewBox="0 0 19.68 19.68">
  <g id="Grupo_3" data-name="Grupo 3">
    <g id="Grupo_2" data-name="Grupo 2">
      <path id="Caminho_2" data-name="Caminho 2" d="M13.53,0H6.15A6.151,6.151,0,0,0,0,6.15v7.38a6.151,6.151,0,0,0,6.15,6.15h7.38a6.151,6.151,0,0,0,6.15-6.15V6.15A6.151,6.151,0,0,0,13.53,0Zm4.305,13.53a4.31,4.31,0,0,1-4.305,4.305H6.15A4.31,4.31,0,0,1,1.845,13.53V6.15A4.31,4.31,0,0,1,6.15,1.845h7.38A4.31,4.31,0,0,1,17.835,6.15Z" fill="#fff"/>
    </g>
  </g>
  <g id="Grupo_5" data-name="Grupo 5" transform="translate(4.92 4.92)">
    <g id="Grupo_4" data-name="Grupo 4">
      <path id="Caminho_3" data-name="Caminho 3" d="M132.92,128a4.92,4.92,0,1,0,4.92,4.92A4.92,4.92,0,0,0,132.92,128Zm0,8A3.075,3.075,0,1,1,136,132.92,3.079,3.079,0,0,1,132.92,136Z" transform="translate(-128 -128)" fill="#fff"/>
    </g>
  </g>
  <g id="Grupo_7" data-name="Grupo 7" transform="translate(14.474 3.895)">
    <g id="Grupo_6" data-name="Grupo 6">
      <circle id="Elipse_4" data-name="Elipse 4" cx="0.656" cy="0.656" r="0.656" fill="#fff"/>
    </g>
  </g>
</svg>
