<svg xmlns="http://www.w3.org/2000/svg" width="21.157" height="21.157" viewBox="0 0 21.157 21.157">
  <g id="whatsapp" transform="translate(0 0)">
    <path id="Caminho_4" data-name="Caminho 4" d="M10.578,1.322a9.256,9.256,0,1,1-9.256,9.256,9.267,9.267,0,0,1,9.256-9.256m0-1.322A10.578,10.578,0,1,0,21.157,10.578,10.579,10.579,0,0,0,10.578,0Zm5.9,14.115-.059-.181a1.675,1.675,0,0,0-1.023-.966l-1.564-.427a1.532,1.532,0,0,0-1.339.351l-.566.566A6.007,6.007,0,0,1,7.7,9.233l.566-.566a1.533,1.533,0,0,0,.35-1.339L8.191,5.764a1.674,1.674,0,0,0-.967-1.023l-.178-.059a1.415,1.415,0,0,0-1.322.313l-.847.847a1.577,1.577,0,0,0-.248.581,9.99,9.99,0,0,0,10.081,10.1,1.559,1.559,0,0,0,.608-.245l.847-.847A1.417,1.417,0,0,0,16.476,14.115Z" fill="#fff"/>
  </g>
</svg>
